<?xml version="1.0" standalone="no"?>
<!DOCTYPE svg PUBLIC "-//W3C//DTD SVG 20010904//EN"
 "http://www.w3.org/TR/2001/REC-SVG-20010904/DTD/svg10.dtd">
<svg version="1.0" xmlns="http://www.w3.org/2000/svg"
 width="700.000000pt" height="700.000000pt" viewBox="0 0 700.000000 700.000000"
 preserveAspectRatio="xMidYMid meet">
<metadata>
Created by potrace 1.11, written by Peter Selinger 2001-2013
</metadata>
<g transform="translate(0.000000,700.000000) scale(0.100000,-0.100000)"
fill="#000000" stroke="none">
<path d="M2339 6771 c-66 -22 -120 -81 -220 -246 -114 -185 -196 -354 -290
-590 -29 -74 -53 -119 -61 -118 -7 0 -98 20 -202 42 -104 23 -210 43 -235 45
-87 6 -174 -42 -212 -117 -38 -74 -25 -184 29 -243 270 -296 386 -550 420
-925 11 -115 4 -368 -12 -469 -3 -14 -8 -52 -11 -85 -4 -33 -9 -73 -11 -90
-26 -223 -23 -575 5 -755 6 -36 3 -54 -16 -92 -52 -106 -143 -370 -157 -456
-3 -15 -12 -67 -20 -117 -37 -213 -41 -533 -10 -725 41 -256 140 -515 274
-720 101 -153 185 -248 352 -397 30 -26 168 -124 243 -171 45 -28 284 -142
340 -162 123 -44 307 -96 380 -107 17 -2 68 -11 115 -19 128 -22 243 -29 475
-29 187 0 297 6 375 20 14 3 41 7 60 10 359 55 691 190 968 393 98 71 122 92
219 190 154 154 259 302 353 497 108 224 160 412 189 685 8 78 7 353 -2 405
-3 17 -8 57 -12 90 -13 124 -59 328 -140 615 -113 403 -145 572 -149 782 -7
376 125 721 434 1138 96 129 109 169 87 265 -6 28 -48 85 -78 108 -19 14 -56
31 -82 38 -54 13 -86 8 -367 -62 -85 -21 -157 -35 -161 -31 -3 4 -37 75 -74
157 -113 247 -353 716 -382 748 -62 65 -156 83 -313 58 -36 -6 -81 -13 -100
-15 -42 -6 -49 -8 -164 -35 -179 -43 -465 -144 -594 -210 l-36 -18 -95 96
c-87 88 -242 223 -301 261 -12 8 -41 29 -64 46 -115 86 -363 219 -539 289 -72
29 -165 40 -208 26z m266 -535 c108 -57 258 -153 334 -214 90 -72 201 -175
201 -186 -1 -6 -26 -27 -57 -46 -56 -35 -294 -207 -303 -219 -3 -4 -22 -20
-42 -35 l-37 -28 -113 46 c-62 25 -171 65 -243 90 -71 25 -131 49 -133 55 -11
34 254 591 282 591 5 0 55 -24 111 -54z m2004 -628 c148 -306 176 -367 170
-371 -2 -2 -69 -25 -149 -51 -238 -79 -481 -172 -725 -277 l-230 -99 -24 27
c-131 152 -272 279 -433 390 l-89 61 98 70 c194 138 479 298 644 362 30 11 68
28 86 36 88 40 414 130 486 133 28 1 33 -8 166 -281z m-2689 -288 c25 -7 52
-15 60 -18 8 -3 20 -6 25 -7 32 -7 297 -100 400 -140 169 -65 423 -192 540
-271 139 -92 325 -258 308 -274 -4 -4 -39 -25 -78 -45 -128 -69 -180 -98 -215
-120 -19 -12 -55 -33 -80 -47 -181 -102 -461 -273 -503 -308 -7 -6 -34 -27
-62 -47 -53 -38 -178 -138 -206 -163 -9 -8 -43 -40 -75 -71 -75 -70 -84 -76
-79 -47 2 13 6 57 9 98 3 41 10 109 15 150 12 95 21 173 26 230 5 60 6 387 1
425 -2 17 -7 57 -11 90 -14 125 -47 261 -96 402 -17 49 -42 109 -55 135 -13
26 -24 50 -24 52 0 3 12 1 28 -3 15 -5 47 -14 72 -21z m3236 -490 c-140 -276
-218 -595 -218 -894 0 -75 10 -237 17 -275 1 -9 6 -36 10 -61 3 -25 9 -58 11
-75 12 -74 58 -260 124 -500 75 -275 104 -391 115 -465 4 -24 8 -47 10 -50 9
-16 19 -166 20 -300 0 -176 -8 -252 -45 -401 -121 -494 -497 -883 -1015 -1049
-109 -35 -244 -66 -321 -75 -27 -3 -56 -8 -64 -10 -30 -8 -198 -18 -305 -17
-201 1 -308 11 -495 48 -542 108 -952 415 -1134 850 -36 85 -81 237 -91 304
-2 19 -9 62 -14 95 -10 60 -7 385 4 458 3 21 13 73 21 115 8 42 17 88 20 102
14 69 83 247 135 348 53 103 137 234 192 300 153 182 322 333 527 474 272 186
820 489 1180 651 30 13 78 34 105 47 28 12 74 33 103 46 29 13 55 24 57 24 3
0 24 9 48 20 101 47 400 158 617 230 201 67 410 130 417 125 1 0 -13 -30 -31
-65z"/>
</g>
</svg>
